<svg height="1065pt" viewBox="-33 -33 1065 1065.0032" width="1065pt" xmlns="http://www.w3.org/2000/svg"><path d="m9.523438 233.097656c-14.160157-10.605468-15.511719-31.570312-3.070313-43.96875l181.699219-181c5.363281-6.214844 13.296875-10.148437 22.15625-10.148437h512.863281c8.824219 0 16.730469 3.910156 22.097656 10.085937l182.808594 181.035156c1.347656 1.566407 2.511719 2.90625 2.742187 3.199219 9.652344 12.875 7.046876 31.140625-5.828124 40.796875l-172.566407 129.214844v37.042969c138.871094 26.859375 243.761719 149.066406 243.761719 295.777343 0 166.386719-134.898438 301.289063-301.289062 301.289063-166.070313 0-300.746094-134.375-301.273438-300.3125h-183.316406c-16.160156 0-29.253906-13.097656-29.253906-29.25v-305.3125zm747.621093 562.464844c-16.160156 0-29.253906 13.089844-29.253906 29.25 0 16.15625 13.09375 29.25 29.253906 29.25 16.144531 0 29.25-13.09375 29.25-29.25 0-16.160156-13.105469-29.25-29.25-29.25zm-124.484375 0c-16.160156 0-29.25 13.089844-29.25 29.25 0 16.15625 13.089844 29.25 29.25 29.25 16.15625 0 29.25-13.09375 29.25-29.25 0-16.160156-13.09375-29.25-29.25-29.25zm-60.855468-189.15625 26.363281 141.445312c1.503906 14.742188 13.960937 26.242188 29.101562 26.242188l146.359375-.089844c11.464844-.003906 22.339844-6.8125 26.964844-18.078125l50.679688-122.46875c2.074218-4.015625 3.242187-8.574219 3.242187-13.402343 0-16.152344-13.089844-29.25-29.25-29.25h-197.054687l-3.519532-18.910157c-2.585937-14.0625-14.863281-23.921875-28.679687-23.902343l-31.476563-.089844c-16.15625 0-29.25 13.097656-29.25 29.253906 0 16.152344 13.09375 29.25 29.25 29.25zm209.804687 42.898438h-142.488281l12.351562 66.285156h102.707032zm-29.183594-552.050782v192.257813l110.554688-82.773438zm-58.503906 296.605469v-337.375h-80.171875l-128.21875 107.828125c-10.640625 9.214844-26.683594 9.597656-37.785156.253906l-128.527344-108.082031h-79.660156v581.125h159.5625c26.800781-138.566406 148.53125-243.28125 294.800781-243.75zm-170.699219 472.945313c94.8125 94.816406 248.546875 94.816406 343.347656 0 94.8125-94.800782 94.816407-248.539063 0-343.34375-94.800781-94.816407-248.535156-94.816407-343.347656 0-94.8125 94.804687-94.8125 248.542968 0 343.34375zm.058594-810.320313h-113.59375l56.796875 47.757813zm-342.226562 41.042969-109.601563 109.148437 109.601563 82.0625zm0 0" fill-rule="evenodd"/></svg>