<?xml version="1.0" encoding="iso-8859-1"?>
<!-- Generator: Adobe Illustrator 19.0.0, SVG Export Plug-In . SVG Version: 6.00 Build 0)  -->
<svg version="1.1" id="Layer_1" xmlns="http://www.w3.org/2000/svg" xmlns:xlink="http://www.w3.org/1999/xlink" x="0px" y="0px"
	 viewBox="0 0 489.06 489.06" style="enable-background:new 0 0 489.06 489.06;" xml:space="preserve">
<g>
	<g>
		<path d="M391.859,336.46c-42.1-0.1-76.3,34.1-76.3,76.3s34.2,76.3,76.3,76.3c42.2,0,76.3-34.2,76.3-76.3
			C468.159,370.56,433.959,336.46,391.859,336.46z M429.159,423.06h-26.9v26.9h-20.7v-26.9h-26.9v-20.7h26.9v-26.9h20.7v26.9h26.9
			V423.06z"/>
	</g>
</g>
<g>
	<g>
		<path d="M298.259,126.86c1.5-4.2,2.6-8.4,3.4-12.6c13.2-79.1-25.8-81.9-25.8-81.9s-6.5-12.4-23.5-21.8
			c-11.4-6.8-27.3-12-48.2-10.2c-6.8,0.3-13.2,1.6-19.2,3.7c-7.7,2.6-14.7,6.4-21.1,10.8c-7.8,5-15.2,11-21.7,18
			c-10.3,10.5-19.5,24.2-23.5,41.2c-3.3,12.7-2.6,26,0.2,40.2c0.8,4.2,1.9,8.4,3.4,12.6c-7.8-0.7-17,3.8-8.3,34.3
			c6.1,22.4,12,28.6,16.5,29c4.1,26.6,24.6,60.3,58.3,72.2c13.8,4.9,29,4.9,42.7-0.1c33.2-12,54.3-45.6,58.4-72.1
			c4.5-0.4,10.3-6.6,16.7-29C315.159,130.56,306.059,126.06,298.259,126.86z"/>
	</g>
</g>
<g>
	<g>
		<path d="M386.859,309.56c-5.4-7.1-13-12.8-23.7-15.5c-47.4-12.1-86-39.2-86-39.2l-30.1,95.1l-5.7,17.9l-0.1-0.2l-4.9,15.2
			l-15.8-45c39-54.4-7.9-53.8-10.5-53.8c-2.6-0.1-49.5-0.6-10.5,53.8l-15.9,45l-4.9-15.2l-0.1,0.2l-5.7-17.9l-30.1-95.1
			c0,0-38.5,27.1-86,39.2c-35.4,9-37.1,49.8-35.6,70c0.2,0,2.2,27.4,4.3,39.4c0,0,69,44.9,184.6,44.9c30.9,0,58.4-3.2,82.2-7.9
			c-2.5-8.8-3.8-18.1-3.8-27.7C288.559,357.46,332.259,312.16,386.859,309.56z"/>
	</g>
</g>
<g>
</g>
<g>
</g>
<g>
</g>
<g>
</g>
<g>
</g>
<g>
</g>
<g>
</g>
<g>
</g>
<g>
</g>
<g>
</g>
<g>
</g>
<g>
</g>
<g>
</g>
<g>
</g>
<g>
</g>
</svg>
