<svg id="Layer_5" enable-background="new 0 0 64 64" height="512" viewBox="0 0 64 64" width="512" xmlns="http://www.w3.org/2000/svg"><path d="m35 7h4.001v2h-4.001z"/><path d="m15 7h14v2h-14z"/><path d="m45 7h4.001v2h-4.001z"/><circle cx="48" cy="16" r="1"/><path d="m14 21h36c1.654 0 3-1.346 3-3v-15h-42v15c0 1.654 1.346 3 3 3zm5-2h-2v-2h2zm0-4h-2v-2h2zm4 4h-2v-2h2zm0-4h-2v-2h2zm4 4h-2v-2h2zm0-4h-2v-2h2zm4 4h-2v-2h2zm0-4h-2v-2h2zm17 4c-1.654 0-3-1.346-3-3s1.346-3 3-3 3 1.346 3 3-1.346 3-3 3zm-5-12c0-1.103.897-2 2-2h4c1.103 0 2 .897 2 2v2c0 1.103-.897 2-2 2h-4c-1.103 0-2-.897-2-2zm-10 0c0-1.103.897-2 2-2h4c1.103 0 2 .897 2 2v2c0 1.103-.897 2-2 2h-4c-1.103 0-2-.897-2-2zm0 8c0-1.103.897-2 2-2h4c1.103 0 2 .897 2 2v2c0 1.103-.897 2-2 2h-4c-1.103 0-2-.897-2-2zm-20-10h18v6h-18zm0 8h2v2h-2zm0 4h2v2h-2z"/><path d="m25 39h2v4h-2z"/><path d="m57.534 5.543c-.205-1.328-1.24-2.32-2.534-2.505v14.962c0 2.757-2.243 5-5 5h-36c-2.757 0-5-2.243-5-5v-14.961c-1.294.184-2.329 1.176-2.534 2.505l-3.3 21.456h57.669z"/><path d="m35 15h4.001v2h-4.001z"/><path d="m3 44c0 1.654 1.346 3 3 3h21v-2h-4v-8h34v8h-4v2h5c1.654 0 3-1.346 3-3v-11h-58zm9-9c2.757 0 5 2.243 5 5s-2.243 5-5 5-5-2.243-5-5 2.243-5 5-5z"/><path d="m12 43c1.654 0 3-1.346 3-3 0-1.302-.839-2.402-2-2.816v3.816h-2v-3.816c-1.161.414-2 1.514-2 2.816 0 1.654 1.346 3 3 3z"/><path d="m53 39h2v4h-2z"/><path d="m29 61h22v-22h-22zm18-20h2v18h-2zm-4 0h2v14h-2zm0 16h2v2h-2zm-4-16h2v14h-2zm0 16h2v2h-2zm-4-16h2v14h-2zm0 16h2v2h-2zm-4-16h2v18h-2z"/><path d="m3 29h58v2h-58z"/></svg>