<?xml version="1.0"?>
<svg xmlns="http://www.w3.org/2000/svg" viewBox="0 0 64 64" width="512" height="512"><g id="check-list-box"><path d="M53,36a6,6,0,1,0-6-6A6.006,6.006,0,0,0,53,36Zm-3.293-6.707L52,31.586l4.293-4.293,1.414,1.414-5,5a1,1,0,0,1-1.414,0l-3-3Z"/><path d="M16,12h1.586l1.707-1.707A1,1,0,0,1,20,10h8a1,1,0,0,1,.707.293L30.414,12H32a1,1,0,0,0,1-1V4H15v7A1,1,0,0,0,16,12Zm2-6H30V8H18Z"/><path d="M44,30v9H57.691l-.586-2.146A7.984,7.984,0,0,1,45,30Z"/><path d="M16,20.414l-2.293,2.293a1,1,0,0,1-1.414,0l-2-2,1.414-1.414L13,20.586,15.586,18H10v6h6Z"/><path d="M5,8V54H26V40a1.016,1.016,0,0,1,.035-.263l3-11A1,1,0,0,1,30,28H43V8H35v3a3,3,0,0,1-3,3H30a1,1,0,0,1-.707-.293L27.586,12H20.414l-1.707,1.707A1,1,0,0,1,18,14H16a3,3,0,0,1-3-3V8ZM33,26H25V24h8ZM21,19H33v2H21Zm0,5h2v2H21ZM8,29h2v2H8Zm0,5H18v2H8Zm4-3V29h6v2ZM8,44h2v2H8Zm4,7H8V49h4Zm8,0H14V49h6Zm0-5H12V44h8Zm0-5H8V39H20ZM17,16a.974.974,0,0,1,.46.126l.833-.833,1.414,1.414L18,18.414V25a1,1,0,0,1-1,1H9a1,1,0,0,1-1-1V17a1,1,0,0,1,1-1Z"/><rect x="32" y="52" width="4" height="2"/><path d="M39,45.131l1.445-.963a1,1,0,0,1,1.262.125L43,45.586l1.293-1.293a1,1,0,0,1,1.262-.125L47,45.131V41H39Z"/><polygon points="42 30 30.764 30 28.309 39 42 39 42 30"/><path d="M58,41H49v6a1,1,0,0,1-1.555.832l-2.318-1.545-1.42,1.42a1,1,0,0,1-1.414,0l-1.42-1.42-2.318,1.545A1,1,0,0,1,37,47V41H28V58H58ZM38,55a1,1,0,0,1-1,1H31a1,1,0,0,1-1-1V51a1,1,0,0,1,1-1h6a1,1,0,0,1,1,1Z"/></g></svg>
