<?xml version="1.0" encoding="iso-8859-1"?>
<!-- Generator: Adobe Illustrator 19.0.0, SVG Export Plug-In . SVG Version: 6.00 Build 0)  -->
<svg version="1.1" id="Layer_1" xmlns="http://www.w3.org/2000/svg" xmlns:xlink="http://www.w3.org/1999/xlink" x="0px" y="0px"
	 viewBox="0 0 491.518 491.518" style="enable-background:new 0 0 491.518 491.518;" xml:space="preserve">
<g>
	<g>
		<polygon points="357.42,7.913 357.42,72.213 421.647,72.213 		"/>
	</g>
</g>
<g>
	<g>
		<path d="M349.491,88.068c-4.381,0-7.927-3.546-7.927-7.927V0H61.931v491.518h367.655V88.068H349.491z M312.965,151.328
			c0,4.382-3.546,7.928-7.928,7.928H187.151c-4.382,0-7.927-3.546-7.927-7.928c0-4.382,3.545-7.927,7.927-7.927h117.886
			C309.42,143.4,312.965,146.945,312.965,151.328z M101.627,35.323h71.179c4.381,0,7.927,3.546,7.927,7.927
			c0,4.382-3.546,7.928-7.927,7.928h-71.179c-4.381,0-7.927-3.546-7.927-7.928C93.7,38.869,97.246,35.323,101.627,35.323z
			 M101.627,86.683h117.886c4.382,0,7.928,3.546,7.928,7.927c0,4.382-3.546,7.928-7.928,7.928H101.627
			c-4.381,0-7.927-3.546-7.927-7.928C93.7,90.229,97.246,86.683,101.627,86.683z M246.098,372.785H102.301
			c-4.381,0-7.927-3.546-7.927-7.928c0-4.381,3.546-7.927,7.927-7.927h143.798c4.382,0,7.928,3.546,7.928,7.927
			C254.026,369.239,250.48,372.785,246.098,372.785z M94.372,281.454c0-4.382,3.546-7.928,7.927-7.928h143.798
			c4.382,0,7.928,3.546,7.928,7.928c0,4.381-3.546,7.927-7.928,7.927H102.301C97.918,289.381,94.372,285.835,94.372,281.454z
			 M389.889,456.196h-58.939c-4.382,0-7.928-3.546-7.928-7.928c0-4.381,3.546-7.927,7.928-7.927h58.939
			c4.382,0,7.928,3.546,7.928,7.927C397.816,452.65,394.27,456.196,389.889,456.196z M389.889,414.212H272.002
			c-4.382,0-7.928-3.546-7.928-7.928s3.546-7.928,7.928-7.928h117.886c4.382,0,7.928,3.546,7.928,7.928
			C397.816,410.666,394.27,414.212,389.889,414.212z M389.889,331.087H102.301c-4.381,0-7.927-3.546-7.927-7.928
			s3.546-7.928,7.927-7.928h287.589c4.382,0,7.928,3.546,7.928,7.928C397.816,327.541,394.27,331.087,389.889,331.087z
			 M389.889,247.676H102.301c-4.381,0-7.927-3.546-7.927-7.928c0-4.381,3.546-7.927,7.927-7.927h287.589
			c4.382,0,7.928,3.546,7.928,7.927C397.816,244.13,394.27,247.676,389.889,247.676z M389.889,205.97H102.301
			c-4.381,0-7.927-3.546-7.927-7.927c0-4.382,3.546-7.928,7.927-7.928h287.589c4.382,0,7.928,3.546,7.928,7.928
			C397.816,202.424,394.27,205.97,389.889,205.97z"/>
	</g>
</g>
<g>
</g>
<g>
</g>
<g>
</g>
<g>
</g>
<g>
</g>
<g>
</g>
<g>
</g>
<g>
</g>
<g>
</g>
<g>
</g>
<g>
</g>
<g>
</g>
<g>
</g>
<g>
</g>
<g>
</g>
</svg>
