<svg height="512pt" viewBox="0 0 512 512.00137" width="512pt" xmlns="http://www.w3.org/2000/svg"><path d="m491.972656 78.691406h-97.996094v-26.078125c0-5.304687-2.105468-10.390625-5.855468-14.144531-51.289063-51.289062-134.3125-51.296875-185.609375 0-3.75 3.753906-5.855469 8.839844-5.855469 14.144531v26.078125h-77.996094v-58.664062c0-11.042969-8.953125-19.996094-20-19.996094-54.398437 0-98.660156 44.257812-98.660156 98.660156v314.648438c0 54.402344 44.261719 98.660156 98.660156 98.660156h393.3125c11.046875 0 20-8.953125 20-19.996094v-393.3125c-.003906-11.046875-8.957031-20-20-20zm-255.320312-17.316406c33.828125-28.488281 83.507812-28.480469 117.328125 0v234.554688c-36.8125-18.355469-80.515625-18.355469-117.328125 0zm107.460937 274.882812-48.796875 48.796876-48.800781-48.796876c29.683594-18.796874 67.917969-18.796874 97.597656 0zm-304.117187-237.566406c0-25.328125 16.132812-46.957031 38.667968-55.152344v273.175782c-14.246093 2.945312-27.378906 8.96875-38.667968 17.34375zm431.976562 373.3125h-373.3125c-32.347656 0-58.664062-26.316406-58.664062-58.664062s26.316406-58.664063 58.664062-58.664063c11.046875 0 20-8.953125 20-20v-215.988281h77.996094c.722656 228.042969-2.914062 221.359375 5.855469 230.128906l78.660156 78.664063c7.804687 7.804687 20.476563 7.808593 28.285156 0 83.671875-83.722657 79.457031-79.15625 81.167969-81.722657 6.128906-9.183593 2.242188-4.394531 3.351562-227.070312h77.996094zm0 0"/></svg>