<?xml version="1.0"?>
<svg xmlns="http://www.w3.org/2000/svg" viewBox="0 0 64 64" width="512" height="512"><g id="Results"><path d="M23,13h4a1,1,0,0,0,1-1V4H22v8A1,1,0,0,0,23,13Z"/><path d="M33,7a1,1,0,0,0-1-1H30V8h3Z"/><path d="M20,6H18a1,1,0,0,0-1,1V8h3Z"/><path d="M47.612,8.254a5.08,5.08,0,0,0-4.727.835A4.973,4.973,0,0,0,41.1,12h2.07a3.008,3.008,0,0,1,2.822-2,3.206,3.206,0,0,1,.789.1,2.942,2.942,0,0,1,2.155,2.267,3.005,3.005,0,0,1-1.4,3.212A5.058,5.058,0,0,0,45,19.923,1.02,1.02,0,0,0,46,21a1,1,0,0,0,1-1,3.11,3.11,0,0,1,1.564-2.707,5.072,5.072,0,0,0,2.112-6.108A4.854,4.854,0,0,0,47.612,8.254Z"/><path d="M46,4A14.015,14.015,0,0,0,32,18a13.868,13.868,0,0,0,2.72,8.27.982.982,0,0,1,.18.81l-.52,2.34,1.84-.7a1.12,1.12,0,0,1,.35-.06,1.026,1.026,0,0,1,.63.22A13.838,13.838,0,0,0,46,32,14,14,0,0,0,46,4Zm0,26a3,3,0,1,1,3-3A3,3,0,0,1,46,30Zm3.592-10.991a1.105,1.105,0,0,0-.592.914A3,3,0,1,1,43,20a7.075,7.075,0,0,1,3.512-6.14,1.016,1.016,0,0,0,.463-1.1.958.958,0,0,0-.678-.723,1.01,1.01,0,0,0-.921.18A1,1,0,0,0,45,13a1,1,0,0,1-1,1H40a1,1,0,0,1-1-1,6.962,6.962,0,0,1,2.638-5.474,7.081,7.081,0,0,1,6.58-1.178A6.865,6.865,0,0,1,52.553,10.5,7.074,7.074,0,0,1,49.592,19.009Z"/><circle cx="46" cy="27" r="1"/><path d="M45,58a1,1,0,0,1-1,1H6a1,1,0,0,1-1-1V12a1,1,0,0,1,1-1H20V10H5a1,1,0,0,0-1,1V59a1,1,0,0,0,1,1H45a1,1,0,0,0,1-1V34c-.33,0-.67-.02-1-.04Z"/><path d="M32.16,10H30v1h1.63C31.8,10.66,31.98,10.33,32.16,10Z"/><path d="M7,57H43V33.7a16.006,16.006,0,0,1-6.6-2.91l-3.05,1.15a1.008,1.008,0,0,1-1.33-1.16l.83-3.7A15.757,15.757,0,0,1,30.04,19H9V17H30.05a16.006,16.006,0,0,1,.76-4h-.99A3.01,3.01,0,0,1,27,15H23a3.01,3.01,0,0,1-2.82-2H7Zm28-3H33V52h2ZM9,36H41v2H9Zm0,4H41v2H9Zm0,4H41v2H9Zm0,4H41v2H9Zm0,4H31v2H9Z"/></g></svg>
