<svg height="512pt" viewBox="-91 0 512 512" width="512pt" xmlns="http://www.w3.org/2000/svg"><path d="m154.023438 41.957031c0-6.160156 5.015624-11.175781 11.175781-11.175781 6.164062 0 11.179687 5.015625 11.179687 11.175781v6.046875h30.78125v-6.046875c0-23.132812-18.824218-41.957031-41.960937-41.957031-23.132813 0-41.957031 18.824219-41.957031 41.957031v6.046875h30.78125zm0 0"/><path d="m289.320312 80.949219h-52.300781v48.332031c0 8.5-6.890625 15.390625-15.390625 15.390625h-112.855468c-8.5 0-15.390626-6.890625-15.390626-15.390625v-48.332031h-52.308593c-22.648438 0-41.074219 18.425781-41.074219 41.074219v348.902343c0 22.648438 18.425781 41.074219 41.074219 41.074219h248.246093c22.648438 0 41.074219-18.425781 41.074219-41.074219v-348.902343c0-22.648438-18.425781-41.074219-41.074219-41.074219zm-211.726562 309.972656h68.683594c8.5 0 15.390625 6.890625 15.390625 15.390625s-6.890625 15.390625-15.390625 15.390625h-68.683594c-8.5 0-15.390625-6.890625-15.390625-15.390625s6.890625-15.390625 15.390625-15.390625zm-15.390625-68.347656c0-8.5 6.890625-15.394531 15.390625-15.394531h68.683594c8.5 0 15.390625 6.894531 15.390625 15.394531 0 8.496093-6.890625 15.390625-15.390625 15.390625h-68.683594c-8.5 0-15.390625-6.894532-15.390625-15.390625zm130.191406-112.480469c6.007813-6.011719 15.753907-6.011719 21.765625 0l6.972656 6.972656 20.792969-20.792968c6.007813-6.007813 15.753907-6.007813 21.765625 0 6.011719 6.007812 6.011719 15.753906 0 21.765624l-31.675781 31.675782c-2.886719 2.886718-6.800781 4.507812-10.882813 4.507812-4.082031 0-7.996093-1.621094-10.882812-4.507812l-17.855469-17.855469c-6.011719-6.011719-6.011719-15.757813 0-21.765625zm0 83.738281c6.007813-6.007812 15.753907-6.007812 21.765625 0l6.972656 6.976563 20.792969-20.792969c6.007813-6.011719 15.753907-6.011719 21.765625 0 6.011719 6.007813 6.011719 15.753906 0 21.765625l-31.675781 31.671875c-3.003906 3.007813-6.945313 4.511719-10.882813 4.511719s-7.878906-1.503906-10.882812-4.511719l-17.855469-17.855469c-6.011719-6.007812-6.011719-15.753906 0-21.765625zm0 83.742188c6.007813-6.011719 15.753907-6.011719 21.765625 0l6.972656 6.972656 20.792969-20.792969c6.007813-6.007812 15.753907-6.007812 21.765625 0 6.011719 6.007813 6.011719 15.753906 0 21.765625l-31.675781 31.675781c-3.003906 3.003907-6.945313 4.507813-10.882813 4.507813s-7.878906-1.503906-10.882812-4.507813l-17.855469-17.855468c-6.011719-6.011719-6.011719-15.753906 0-21.765625zm-46.113281-154.132813c8.5 0 15.390625 6.890625 15.390625 15.390625s-6.890625 15.390625-15.390625 15.390625h-68.6875c-8.5 0-15.390625-6.890625-15.390625-15.390625s6.890625-15.390625 15.390625-15.390625zm0 0"/><path d="m124.164062 78.785156h82.074219v35.105469h-82.074219zm0 0"/></svg>